<?xml version="1.0" encoding="UTF-8"?>
<!DOCTYPE svg PUBLIC "-//W3C//DTD SVG 1.1//EN" "http://www.w3.org/Graphics/SVG/1.1/DTD/svg11.dtd">
<!-- Creator: CorelDRAW X7 -->
<svg xmlns="http://www.w3.org/2000/svg" xml:space="preserve" width="150px" height="60px" version="1.1" style="shape-rendering:geometricPrecision; text-rendering:geometricPrecision; image-rendering:optimizeQuality; fill-rule:evenodd; clip-rule:evenodd"
viewBox="0 0 4386 1167"
 xmlns:xlink="http://www.w3.org/1999/xlink">
 <defs>
  <style type="text/css">
   <![CDATA[
    .fil0 {fill:#FFCC29}
   ]]>
  </style>
 </defs>
 <g id="Layer_x0020_1">
  <metadata id="CorelCorpID_0Corel-Layer"/>
  <path class="fil0" d="M583 0l3219 0c321,0 584,262 584,583l0 0c0,321 -263,584 -584,584l-3219 0c-321,0 -583,-263 -583,-584l0 0c0,-321 262,-583 583,-583zm1198 262c-39,-44 -111,-74 -198,-74 -156,0 -264,112 -264,259 0,105 63,158 129,196 57,33 81,63 81,105 0,57 -48,92 -95,92 -47,0 -91,-22 -120,-56l-98 124c43,47 125,82 219,82 135,0 264,-86 264,-262 0,-111 -78,-168 -136,-203 -51,-30 -75,-51 -75,-93 0,-65 54,-96 93,-96 39,0 77,17 102,46l98 -120zm729 148l-158 0 -126 367 -2 0 -5 -367 -133 0 -136 367 -2 0 6 -367 -157 0 20 561 157 0 139 -346 1 0 7 346 163 0 226 -561zm230 0l-158 0 -97 561 158 0 97 -561zm35 -170c0,-47 -29,-81 -81,-81 -55,0 -94,49 -94,104 0,42 28,80 78,80 55,0 97,-46 97,-103zm348 170l-95 0 25 -137 -153 0 -23 137 -74 0 -22 126 74 0 -47 270c-3,17 -5,35 -5,48 0,79 47,127 141,127 27,0 61,-8 82,-18l20 -119c-10,3 -26,6 -38,6 -31,0 -46,-16 -46,-47 0,-9 2,-25 4,-37l42 -230 91 0 24 -126zm390 26c-25,-23 -61,-43 -130,-43 -169,0 -270,193 -270,373 0,124 56,222 189,222 53,0 99,-16 129,-41l-41 -124c-17,12 -34,21 -57,21 -46,0 -66,-36 -66,-96 0,-91 42,-212 112,-212 27,0 41,10 53,23l81 -123zm478 93c0,-64 -32,-136 -123,-136 -69,0 -114,43 -144,94l-2 0 59 -332 -157 0 -142 816 157 0 57 -329c11,-65 45,-110 88,-110 34,0 44,25 44,55 0,13 -2,27 -4,40l-61 344 158 0 59 -344c7,-35 11,-71 11,-98l0 0zm-3350 442c220,0 398,-178 398,-398 0,-220 -178,-398 -398,-398 -220,0 -398,178 -398,398 0,220 178,398 398,398zm-80 -387l79 -330 142 34 -80 330 -141 -34zm139 189c14,-58 -22,-115 -79,-129 -57,-14 -115,21 -129,79 -14,57 22,115 79,128 57,14 115,-21 129,-78z"/>
 </g>
</svg>
